<svg enable-background="new 0 0 671.13 517.89" viewBox="0 0 671.13 517.89" xmlns="http://www.w3.org/2000/svg"><g fill="none"><path d="m0 215.37h483" stroke="#004d7b" stroke-linecap="round" stroke-miterlimit="10" stroke-width="3"/><path d="m0 246.37h288.84" stroke="#004d7b" stroke-linecap="round" stroke-miterlimit="10" stroke-width="4"/><path d="m0 262.37h561.93" stroke="#004d7b" stroke-linecap="round" stroke-miterlimit="10" stroke-width="6"/><path d="m0 278.37h377.86" stroke="#004d7b" stroke-linecap="round" stroke-miterlimit="10" stroke-width="6"/><path d="m0 294.37h483" stroke="#004d7b" stroke-linecap="round" stroke-miterlimit="10" stroke-width="2"/><path d="m0 310.37h483" stroke="#004d7b" stroke-linecap="round" stroke-miterlimit="10" stroke-width="4"/><path d="m0 229.97h73.98s16.06 1.34 22.76-19.41l32.13-55.56s6.02-16.06 30.79-12.72h376.83" stroke="#004d7b" stroke-linecap="round" stroke-miterlimit="10" stroke-width="3"/><path d="m439.44 80.04h-228.91s-13.39-2.68-21.42 9.37l-29.45 52.88" stroke="#004d7b" stroke-linecap="round" stroke-miterlimit="10" stroke-width="3"/><path d="m288.84 56.61h-28.11s-12.05 1.34-23.43 18.07l-103.75 184.69" stroke="#004d7b" stroke-linecap="round" stroke-miterlimit="10" stroke-width="6"/><path d="m116.15 215.37 22.09-38.28s8.7-14.73 21.42-13.39h68.94" stroke="#004d7b" stroke-linecap="round" stroke-miterlimit="10" stroke-width="3"/><path d="m188.44 262.37 14.06-26.38s8.7-14.06 23.43-14.06h109.1" stroke="#004d7b" stroke-linecap="round" stroke-miterlimit="10" stroke-width="3"/><path d="m395.93 172.41h-35.93s-18.95.9-22.3 13.5l-26.77 48.75s-6.69 11.72-22.09 11.72" stroke="#004d7b" stroke-linecap="round" stroke-miterlimit="10" stroke-width="5"/><path d="m454.16 321h-58.23s-20.75-1.49-24.1-14.06l-22.09-44.57" stroke="#004d7b" stroke-linecap="round" stroke-miterlimit="10" stroke-width="2"/><path d="m87.37 262.37 78.98 138.28s8.03 22.09 31.46 20.08h133.87" stroke="#004d7b" stroke-linecap="round" stroke-miterlimit="10" stroke-width="6"/><path d="m241.5 477.62h-20.93s-12.72-2.68-16.06-16.73l-6.69-40.16" stroke="#004d7b" stroke-linecap="round" stroke-miterlimit="10" stroke-width="2"/><path d="m458.18 460.22h-181.39l-60.24-110.44" stroke="#004d7b" stroke-linecap="round" stroke-miterlimit="10" stroke-width="3"/><path d="m529.13 367.18h-74.97s-14.06 3.35-22.09-11.38l-36.14-64.12s-4.2-10.25-18.07-13.31h-3.38" stroke="#004d7b" stroke-linecap="round" stroke-miterlimit="10" stroke-width="6"/><path d="m137.68 295.33c8.71 2.56 17.28 8 21.98 18.97l14.73 27.31s4.69 8.16 23.43 8.16h54.22" stroke="#004d7b" stroke-linecap="round" stroke-miterlimit="10" stroke-width="2"/></g><circle cx="574.04" cy="372.92" fill="#004d7b" r="47.94"/><path d="m584.82 368.07-4.14-1.74c.03-.75.03-1.42.05-2.17l4.15-1.69c1.15-.47 1.73-1.85 1.26-3l-1.69-4.15c-.47-1.15-1.85-1.73-3-1.26l-4.15 1.69c-.43-.56-.98-1.08-1.56-1.52l1.74-4.14c.48-1.14-.09-2.52-1.22-3l-4.14-1.74c-1.14-.48-2.52.09-3 1.22l-1.74 4.14c-.75-.03-1.42-.03-2.17-.05l-1.69-4.15c-.47-1.15-1.85-1.73-3-1.26l-4.15 1.69c-1.15.47-1.73 1.85-1.26 3l1.69 4.15c-.56.43-1.08.98-1.52 1.56l-4.14-1.74c-1.14-.48-2.52.09-3 1.22l-1.74 4.14c-.48 1.14.09 2.52 1.22 3l4.14 1.74c-.03.75-.03 1.42-.05 2.17l-4.15 1.69c-1.15.47-1.73 1.85-1.26 3l1.69 4.15c.47 1.15 1.85 1.73 3 1.26l4.15-1.69c.43.56.98 1.08 1.56 1.52l-1.74 4.14c-.48 1.14.09 2.52 1.22 3l4.14 1.74c1.14.48 2.52-.09 3-1.22l1.77-4.22c.75.03 1.42.03 2.17.05l1.69 4.15c.47 1.15 1.85 1.73 3 1.26l4.15-1.69c1.15-.47 1.73-1.85 1.26-3l-1.69-4.15c.56-.43 1.08-.98 1.52-1.56l4.14 1.74c1.14.48 2.52-.09 3-1.22l1.74-4.14c.4-1.17-.12-2.44-1.25-2.92zm-21.65 4.46c-4.06-1.71-5.99-6.43-4.28-10.49s6.43-5.99 10.49-4.28 5.99 6.43 4.28 10.49c-1.7 4.06-6.43 5.99-10.49 4.28z" fill="#fff"/><path d="m600.51 385.02h-2.82c-.17-.44-.33-.83-.5-1.27l1.99-1.99c.55-.55.55-1.49 0-2.04l-1.99-1.99c-.55-.55-1.49-.55-2.04 0l-1.99 1.99c-.39-.22-.83-.39-1.27-.5v-2.82c0-.77-.66-1.44-1.44-1.44h-2.82c-.77 0-1.44.66-1.44 1.44v2.82c-.44.17-.83.33-1.27.5l-1.99-1.99c-.55-.55-1.49-.55-2.04 0l-1.99 1.99c-.55.55-.55 1.49 0 2.04l1.99 1.99c-.22.39-.39.83-.5 1.27h-2.82c-.77 0-1.44.66-1.44 1.44v2.82c0 .77.66 1.44 1.44 1.44h2.82c.17.44.33.83.5 1.27l-1.99 1.99c-.55.55-.55 1.49 0 2.04l1.99 1.99c.55.55 1.49.55 2.04 0l1.99-1.99c.39.22.83.39 1.27.5v2.82c0 .77.66 1.44 1.44 1.44h2.82c.77 0 1.44-.66 1.44-1.44v-2.87c.44-.17.83-.33 1.27-.5l1.99 1.99c.55.55 1.49.55 2.04 0l1.99-1.99c.55-.55.55-1.49 0-2.04l-1.99-1.99c.22-.39.39-.83.5-1.27h2.82c.77 0 1.44-.66 1.44-1.44v-2.82c-.06-.78-.67-1.39-1.44-1.39zm-11.44 7.85c-2.76 0-5.03-2.26-5.03-5.03 0-2.76 2.26-5.03 5.03-5.03s5.03 2.26 5.03 5.03c0 2.76-2.27 5.03-5.03 5.03z" fill="#fff"/><circle cx="498.96" cy="460.22" fill="#004d7b" r="47.94"/><path d="m532.14 447.94c-8.62-8.62-20.11-13.85-33.18-13.85s-24.82 5.22-33.18 13.85c-.52.52-.78 1.04-.78 1.83s.26 1.31.78 1.83l3.66 3.66c1.04 1.04 2.61 1.04 3.66 0 6.53-6.53 15.67-10.71 25.86-10.71s19.33 4.18 25.86 10.71c1.04 1.04 2.61 1.04 3.66 0l3.66-3.66c.52-.52.78-1.04.78-1.83s-.26-1.57-.78-1.83z" fill="#fff"/><path d="m498.96 455c-7.31 0-13.58 2.87-18.29 7.58-1.04 1.04-1.04 2.61 0 3.66l3.66 3.66c1.04 1.04 2.61 1.04 3.66 0 2.87-2.87 6.79-4.44 10.97-4.44s8.1 1.83 10.97 4.44c1.04 1.04 2.61 1.04 3.66 0l3.66-3.66c1.04-1.04 1.04-2.61 0-3.66-4.71-4.71-10.98-7.58-18.29-7.58z" fill="#fff"/><circle cx="498.96" cy="481.12" fill="#fff" r="5.22"/><circle cx="485.63" cy="79.85" fill="#004d7b" r="45.59"/><path d="m479.99 71.54.58.79 3.85-2.82-3.07-.35c-.31.87-.77 1.68-1.36 2.38z" fill="#fff"/><path d="m476.52 73.84c-1.07.33-2.21.42-3.34.25-.15-.02-.29-.05-.43-.08l-.94 4.74 4.38-3.21z" fill="#fff"/><path d="m498.04 98.17 2.09 1.81c.49-1.17 1.16-2.22 1.97-3.13l-1.87-1.63c-.51 1.17-1.27 2.17-2.19 2.95z" fill="#fff"/><path d="m501.89 61.27-40.92 29.95c-.26.19-.44.45-.52.73-.19.63.07 1.36.74 1.67 7.5 3.58 16.3 3.97 24.2.82.67-.27 1.34-.56 1.99-.88 1.61-.78 3.18-1.72 4.68-2.81 1.46-1.07 2.79-2.24 4-3.51.5-.52.98-1.06 1.44-1.61 2.62-3.16 4.52-6.78 5.65-10.6 1.23-4.14 1.57-8.52.96-12.83-.14-1.04-1.36-1.55-2.22-.93z" fill="#fff"/><path d="m467.14 64.78c.01-.06.03-.11.05-.17.08-.27.17-.53.28-.78.87-3.25 3.96-5.39 7.34-5.02.9.1 1.71-.47 1.96-1.3.03-.1.05-.21.07-.33.11-1.01-.62-1.91-1.63-2.02-2.59-.28-5.18.41-7.3 1.94-2.11 1.53-3.57 3.77-4.11 6.32-.21.99.42 1.97 1.41 2.18.77.16 1.53-.19 1.93-.82z" fill="#fff"/><path d="m474.37 48.6c-3.48-.38-6.96.54-9.79 2.6-2.84 2.05-4.8 5.07-5.52 8.48-.21.99.42 1.97 1.41 2.18s1.97-.42 2.18-1.41c.54-2.53 1.99-4.75 4.08-6.27 2.1-1.52 4.67-2.2 7.24-1.92.9.1 1.71-.47 1.96-1.3.03-.11.05-.21.07-.33.1-1.01-.62-1.92-1.63-2.03z" fill="#fff"/><path d="m473.74 70.45c.47.07.93.06 1.36-.04.47-.1.9-.29 1.29-.55.45-.3.83-.69 1.12-1.15.17-.28.31-.59.41-.91.05-.16.09-.33.11-.5.32-2.05-1.09-3.98-3.15-4.29-1.88-.29-3.65.87-4.18 2.64-.05.16-.09.33-.11.5-.31 1.98.99 3.84 2.93 4.25.07.03.14.04.22.05z" fill="#fff"/><path d="m502.91 101.88c-1.1 3.72.71 7.61 4.11 9.21.55.26 1.21-.03 1.38-.61l3.81-12.81c.17-.58-.22-1.19-.82-1.27-3.73-.51-7.37 1.76-8.48 5.48z" fill="#fff"/><path d="m490.56 96.04c.37.25.79.45 1.24.59 2.41.72 4.94-.66 5.65-3.06.26-.89.24-1.79-.01-2.61-2.01 2.13-4.31 3.81-6.88 5.08z" fill="#fff"/><circle cx="615.86" cy="262.37" fill="#004d7b" r="55.27"/><path d="m628.8 231.62h-25.88c-2.48 0-4.48 2.01-4.48 4.48v52.55c0 2.47 2 4.48 4.48 4.48h25.88c2.47 0 4.48-2.01 4.48-4.48v-52.55c0-2.47-2.01-4.48-4.48-4.48zm-19.33 2.72h12.78c.32 0 .58.48.58 1.08s-.26 1.08-.58 1.08h-12.78c-.33 0-.58-.48-.58-1.08s.26-1.08.58-1.08zm6.39 54.36c-1.58 0-2.86-1.28-2.86-2.86s1.28-2.86 2.86-2.86c1.57 0 2.85 1.28 2.85 2.86s-1.28 2.86-2.85 2.86zm14.06-9.79h-28.12v-39.73h28.12z" fill="#fff"/><circle cx="518.76" cy="214.07" fill="#004d7b" r="34.78"/><path d="m509.21 233.54 3.8-8.32c.35-.77.01-1.67-.75-2.02l-4.05-1.85.51-1.11 6.79 3.11c.77.35 1.67.01 2.02-.75l1.27-2.77.06.03c-1.47 5 .92 10.48 5.8 12.71.77.35 1.67.01 2.02-.75l7.6-16.63c.35-.77.01-1.67-.75-2.02-4.88-2.23-10.58-.46-13.41 3.93l-.06-.03 1.27-2.77c.35-.77.01-1.67-.75-2.02l-6.81-3.11.51-1.11 4.07 1.86c.77.35 1.67.01 2.02-.75l3.8-8.32c.35-.77.01-1.67-.75-2.02l-10.88-4.97c-.77-.35-1.67-.01-2.02.75l-3.8 8.32c-.35.77-.01 1.67.75 2.02l4.04 1.85-.51 1.11-6.81-3.11c-.77-.35-1.67-.01-2.02.75l-1.27 2.77-3.88-1.77c-.77-.35-1.67-.01-2.02.75-.35.77-.01 1.67.75 2.02l3.88 1.77-1.27 2.77c-.35.77-.01 1.67.75 2.02l6.83 3.12-.51 1.11-4.05-1.85c-.77-.35-1.67-.01-2.02.75l-3.8 8.32c-.35.77-.01 1.67.75 2.02l10.88 4.97c.76.33 1.67-.01 2.02-.78zm.9-30.75 2.53-5.54 8.11 3.71-2.53 5.54zm20.7 12.64-6.21 13.58c-2.87-2.09-3.97-5.98-2.44-9.33 1.53-3.34 5.2-5.05 8.65-4.25zm-29.04-1.72 2.53-5.54 13.62 6.23-2.53 5.54zm-2.81 13.47 2.53-5.54 8.11 3.71-2.53 5.54z" fill="#fff"/><path d="m539.55 225.86-1 .58c.25.43.25 1 .02 1.5s-.68.86-1.17.95l.2 1.14c.86-.15 1.62-.75 2.01-1.6.4-.85.38-1.81-.06-2.57z" fill="#fff"/><path d="m542.08 229.58c.82-1.75.78-3.73-.12-5.29l-1 .58c.71 1.23.73 2.81.07 4.22s-1.89 2.4-3.29 2.65l.2 1.14c1.77-.31 3.32-1.54 4.14-3.3z" fill="#fff"/><path d="m536 223.99c-.32-.15-.66-.23-1-.23l-2.7-3.16-.54 1.15 1.98 2.32c-.29.16-.54.37-.74.62l-2.15-1-.49 1.05 2.15 1c-.07.33-.07.65-.01.97l-3.05-.04-.54 1.15 4.15.05c.22.26.5.47.82.62.6.28 1.28.31 1.9.08s1.12-.68 1.4-1.28c.6-1.24.06-2.72-1.18-3.3z" fill="#fff"/><circle cx="364.29" cy="221.94" fill="#004d7b" r="30.26"/><path d="m375.91 226.96c-2.15 0-4.04 1.02-5.27 2.59l-11.47-5.86c.15-.56.26-1.14.26-1.75 0-.66-.13-1.29-.31-1.89l11.42-5.84c1.23 1.64 3.17 2.71 5.37 2.71 3.73 0 6.75-3.02 6.75-6.75s-3.02-6.75-6.75-6.75-6.75 3.02-6.75 6.75c0 .61.11 1.19.26 1.75l-11.46 5.86c-1.24-1.57-3.13-2.59-5.28-2.59-3.73 0-6.75 3.02-6.75 6.75s3.02 6.75 6.75 6.75c2.21 0 4.15-1.07 5.38-2.71l11.41 5.84c-.18.61-.31 1.23-.31 1.9 0 3.73 3.02 6.75 6.75 6.75s6.75-3.02 6.75-6.75c0-3.74-3.02-6.76-6.75-6.76z" fill="#fff"/><circle cx="383.8" cy="420.73" fill="#004d7b" r="59.52"/><path d="m418.21 391.14c-1.18-1.18-2.6-1.77-4.26-1.77h-60.31c-1.66 0-3.08.59-4.26 1.77s-1.77 2.6-1.77 4.26v41.01c0 1.66.59 3.08 1.77 4.26s2.6 1.77 4.26 1.77h20.5c0 .95-.2 1.94-.6 2.94-.4 1.01-.8 1.88-1.21 2.64-.4.75-.6 1.31-.6 1.66 0 .65.24 1.22.72 1.7s1.04.72 1.7.72h19.3c.65 0 1.22-.24 1.7-.72s.72-1.04.72-1.7c0-.33-.2-.87-.6-1.64s-.8-1.66-1.21-2.68c-.4-1.02-.6-1.99-.6-2.92h20.5c1.66 0 3.08-.59 4.26-1.77s1.77-2.6 1.77-4.26v-41.01c-.01-1.66-.6-3.08-1.78-4.26zm-3.05 35.62c0 .33-.12.61-.36.85s-.52.36-.85.36h-60.31c-.33 0-.61-.12-.85-.36s-.36-.52-.36-.85v-31.36c0-.33.12-.61.36-.85s.52-.36.85-.36h60.31c.33 0 .61.12.85.36s.36.52.36.85z" fill="#fff"/><circle cx="439.76" cy="173.07" fill="#004d7b" r="42.31"/><path d="m460.1 163.99v-1.49c0-3.11-2.53-5.65-5.64-5.65h-18.41l-5.3-4.81h-10.72c-3.11 0-5.65 2.53-5.65 5.65v30.75c0 3.11 2.53 5.65 5.64 5.65h31.83 2.61c.03 0 .06-.01.09-.01 2.94-.09 5.31-2.42 5.46-5.34l5.15-24.75zm-4.4 0h-29.74l-4.99 25.7h-.95c-.69 0-1.25-.56-1.25-1.25v-30.75c0-.69.56-1.25 1.25-1.25h9.03l5.3 4.81h20.11c.69 0 1.25.56 1.25 1.25v1.49z" fill="#fff"/><circle cx="274.76" cy="167.41" fill="#004d7b" r="49.53"/><path d="m296.34 140.61c-1.28-1.28-2.81-1.92-4.61-1.92h-33.94c-1.79 0-3.33.64-4.61 1.92s-1.92 2.81-1.92 4.61v44.38c0 1.8.64 3.33 1.92 4.61s2.81 1.92 4.61 1.92h33.94c1.8 0 3.33-.64 4.61-1.92s1.92-2.81 1.92-4.61v-44.38c-.01-1.8-.65-3.33-1.92-4.61zm-19.75 52.13c-.52.52-1.13.77-1.84.77s-1.32-.26-1.84-.77c-.52-.52-.77-1.13-.77-1.84s.26-1.32.77-1.84c.52-.52 1.13-.78 1.84-.78s1.32.26 1.84.78.78 1.13.78 1.84-.26 1.32-.78 1.84zm16.44-8.36c0 .35-.13.66-.39.92s-.56.39-.92.39h-33.94c-.35 0-.66-.13-.92-.39s-.39-.56-.39-.92v-39.16c0-.35.13-.66.39-.92s.56-.39.92-.39h33.94c.35 0 .66.13.92.39s.39.56.39.92z" fill="#fff"/><circle cx="278.76" cy="477.62" fill="#004d7b" r="40.27"/><path d="m278.76 453.05c-13.57 0-24.58 11-24.58 24.58 0 13.57 11 24.58 24.58 24.58s24.58-11 24.58-24.58-11-24.58-24.58-24.58zm10.63 29.25h-10.42c-.04 0-.07-.01-.1-.01s-.07.01-.1.01c-.94 0-1.7-.76-1.7-1.7v-17.35c0-.94.76-1.7 1.7-1.7s1.7.76 1.7 1.7v15.65h8.92c.94 0 1.7.76 1.7 1.7s-.76 1.7-1.7 1.7z" fill="#fff"/><circle cx="489.47" cy="317.67" fill="#004d7b" r="38.66"/><path d="m510.54 326.49v-3.66h3.75c.85 0 1.54-.62 1.54-1.38v-7.57c0-.76-.69-1.38-1.54-1.38h-3.75v-3.66c0-2.28-2.08-4.13-4.63-4.13h-38.17c-2.56 0-4.63 1.85-4.63 4.13v17.64c0 2.28 2.08 4.13 4.63 4.13h38.17c2.55.01 4.63-1.85 4.63-4.12zm-41.98-17.05h6.76c.85 0 1.54.62 1.54 1.38v13.69c0 .76-.69 1.38-1.54 1.38h-6.76c-.85 0-1.54-.62-1.54-1.38v-13.69c-.01-.76.68-1.38 1.54-1.38zm11.5 16.45c-.85 0-1.54-.62-1.54-1.38v-13.69c0-.76.69-1.38 1.54-1.38h6.76c.85 0 1.54.62 1.54 1.38v13.69c0 .76-.69 1.38-1.54 1.38z" fill="#fff"/><circle cx="346.77" cy="57.02" fill="#004d7b" r="57.02"/><path d="m382.54 43.77h-15.45v-2.39h15.45zm0 1.55h-15.45v2.39h15.45zm-.01-10.82h-15.43v5.26h15.43zm4.94-5.65v56.35c0 .84-.69 1.53-1.54 1.53h-22.22c-.85 0-1.53-.69-1.53-1.53v-56.35c0-.85.69-1.54 1.53-1.54h22.22c.85 0 1.54.69 1.54 1.54zm-3.07 1.53h-19.16v53.28h19.16zm-1.86 18.89h-15.45v2.38h15.45zm-2.51 17.78c0 2.75-2.22 4.96-4.96 4.96s-4.96-2.22-4.96-4.96 2.22-4.96 4.96-4.96c2.74-.01 4.96 2.22 4.96 4.96zm-1.79 0c0-1.75-1.42-3.17-3.17-3.17s-3.17 1.42-3.17 3.17 1.42 3.17 3.17 3.17 3.17-1.42 3.17-3.17zm-20.29-28.93v31.94c0 1.93-1.55 3.48-3.46 3.48h-17.25s-.98 6.97 5.23 6.97v3.49h-5.23-10.46-5.23v-3.48c5.98 0 5.23-6.97 5.23-6.97h-17.25c-1.91 0-3.46-1.56-3.46-3.48v-31.95c0-1.93 1.55-3.48 3.46-3.48h44.96c1.92 0 3.46 1.55 3.46 3.48zm-22.71 31.16c0-1.65-1.34-2.99-2.99-2.99s-2.99 1.34-2.99 2.99 1.34 2.99 2.99 2.99 2.99-1.34 2.99-2.99zm19.01-30.94h-44.47v26.93h44.46v-26.93zm-21.97 29.07c-1.03 0-1.86.83-1.86 1.86s.83 1.86 1.86 1.86c1.02 0 1.86-.83 1.86-1.86s-.83-1.86-1.86-1.86z" fill="#fff"/><circle cx="582.08" cy="142.29" fill="#004d7b" r="45.59"/><path d="m564.97 165.06v-11.58" style="fill:none;stroke:#fff;stroke-width:6;stroke-linecap:round;stroke-linejoin:round;stroke-miterlimit:10"/><path d="m576.26 165.06v-23.16" style="fill:none;stroke:#fff;stroke-width:6;stroke-linecap:round;stroke-linejoin:round;stroke-miterlimit:10"/><path d="m588.22 165.06v-35.12" style="fill:none;stroke:#fff;stroke-width:6;stroke-linecap:round;stroke-linejoin:round;stroke-miterlimit:10"/><path d="m599.19 165.06v-45.55" style="fill:none;stroke:#fff;stroke-width:6;stroke-linecap:round;stroke-linejoin:round;stroke-miterlimit:10"/><circle cx="295.55" cy="347.68" fill="#004d7b" r="46.84"/><path d="m275.68 368.75c-6.58 0-11.91-5.33-11.91-11.91 0-5.48 3.7-10.09 8.73-11.48.56-4.66 4.52-8.28 9.33-8.28 1.46 0 2.83.34 4.06.93 2.39-6.66 8.76-11.42 16.24-11.42 8.97 0 16.34 6.85 17.17 15.6 4.73 2.23 8.01 7.04 8.01 12.62 0 7.7-6.24 13.93-13.93 13.93-.49 0-.98-.03-1.46-.08-.44.05-.88.08-1.33.08" fill="#fff"/><circle cx="205.14" cy="313.44" fill="#004d7b" r="25.68"/><path d="m214.51 303.25h-18.74v12.03h18.74zm-15.98 11.51c0 .07-.09.11-.2.11h-1.58c-.11 0-.2-.05-.2-.11v-.57c0-.06.09-.11.2-.11h1.58c.11 0 .2.05.2.11zm15.2 0c0 .07-.09.11-.2.11h-13.7c-.11 0-.2-.05-.2-.11v-.57c0-.06.09-.11.2-.11h13.7c.11 0 .2.05.2.11z" fill="#fff"/><path d="m220.51 322.83-2.33-4.38c-.34-.64-.91-1.21-1.58-1.65.42-.55.67-1.23.67-1.98v-11.02c0-1.82-1.48-3.31-3.31-3.31h-17.64c-1.82 0-3.31 1.48-3.31 3.31v11.02c0 .74.26 1.42.67 1.98-.67.44-1.24 1.01-1.58 1.65l-2.33 4.38c-.46.86-.48 1.76-.06 2.46s1.22 1.11 2.2 1.11h26.46c.97 0 1.78-.4 2.2-1.11.42-.7.4-1.6-.06-2.46zm-25.29-8.01v-11.02c0-.61.49-1.1 1.1-1.1h17.64c.61 0 1.1.49 1.1 1.1v11.02c0 .61-.49 1.1-1.1 1.1h-17.64c-.61.01-1.1-.49-1.1-1.1zm23.15 9.37h-26.46c-.17 0-.26-.03-.29-.03 0-.04.02-.14.1-.3l2.33-4.38c.38-.71 1.46-1.36 2.27-1.36h17.64c.81 0 1.89.65 2.27 1.36l2.33 4.38c.08.16.1.25.11.27-.03.03-.12.06-.3.06z" fill="#fff"/><path d="m202.26 321.75-1.1 1.76h7.96l-1.1-1.76z" fill="#fff"/></svg>